# xmcd
#
# Track frame offsets:
#	150
#	15961
#	37038
#	52872
#	74486
#	97204
#	110607
#	125941
#	139265
#	155134
#	168959
#
# Disc length: 2503 seconds
#
# Revision: 1
# Processed by: cddbd v1.5.1PL2 Copyright (c) Steve Scherf et al.
# Submitted via: audiograbber 1.83.01
#
DISCID=9f09c50b
DTITLE=Al Hunter - Cold Hard Winter
DYEAR=1999
DGENRE=Country
TTITLE0=Love's A Thing Worth Fighting For
TTITLE1=Gypsy Woman
TTITLE2=Trouble With A Capital T
TTITLE3=Cold Hard Winter
TTITLE4=Slow Down For Fall
TTITLE5=Final Curtain
TTITLE6=All Just Part Of The Game
TTITLE7=Sleep Won't Come
TTITLE8=When The Circus Comes To Town
TTITLE9=One In A Million
TTITLE10=Hall Of The Mountain King
EXTD=
EXTT0=
EXTT1=
EXTT2=
EXTT3=
EXTT4=
EXTT5=
EXTT6=
EXTT7=
EXTT8=
EXTT9=
EXTT10=
PLAYORDER=
